<svg width="95" height="96" viewBox="0 0 95 96" fill="none" xmlns="http://www.w3.org/2000/svg">
<path d="M78.9224 41.6612C81.2854 44.0054 82.6129 47.1848 82.6129 50.5C82.6129 53.8152 81.2854 56.9946 78.9224 59.3388C76.5593 61.683 73.3544 63 70.0126 63C66.6708 63 63.4658 61.683 61.1028 59.3388C58.7398 56.9946 57.4123 53.8152 57.4123 50.5C57.4123 47.1848 58.7398 44.0054 61.1028 41.6612C63.4658 39.317 66.6708 38 70.0126 38C73.3544 38 76.5593 39.317 78.9224 41.6612Z" fill="#93D482"/>
<path d="M52.8289 88C49.7891 88 47.332 85.5625 47.332 82.5469C47.332 74.5156 53.8999 68 61.9956 68H78.0295C86.1252 68 92.6931 74.5156 92.6931 82.5469C92.6931 85.5625 90.2361 88 87.1963 88H52.8289Z" fill="#93D482"/>
<path d="M9.53284 8C5.35899 8 1.97266 11.3594 1.97266 15.5V48H24.6532C26.0392 48 27.1733 49.125 27.1733 50.5C27.1733 51.875 26.0392 53 24.6532 53H1.97266V63H24.6532C26.0392 63 27.1733 64.125 27.1733 65.5C27.1733 66.875 26.0392 68 24.6532 68H1.97266V80.5C1.97266 84.6406 5.35899 88 9.53284 88H43.8529C42.8607 86.4062 42.2936 84.5312 42.2936 82.5156C42.2936 75.1875 46.3572 68.7969 52.3739 65.4531V50.4688V15.5C52.3739 11.3594 48.9876 8 44.8137 8H9.53284ZM25.9132 18H28.4333C29.8193 18 30.9534 19.125 30.9534 20.5V24.25H34.7335C36.1195 24.25 37.2535 25.375 37.2535 26.75V29.25C37.2535 30.625 36.1195 31.75 34.7335 31.75H30.9534V35.5C30.9534 36.875 29.8193 38 28.4333 38H25.9132C24.5272 38 23.3932 36.875 23.3932 35.5V31.75H19.6131C18.2271 31.75 17.093 30.625 17.093 29.25V26.75C17.093 25.375 18.2271 24.25 19.6131 24.25H23.3932V20.5C23.3932 19.125 24.5272 18 25.9132 18Z" fill="url(#paint0_linear_1275_31167)"/>
<defs>
<linearGradient id="paint0_linear_1275_31167" x1="27.1733" y1="8" x2="27.1733" y2="88" gradientUnits="userSpaceOnUse">
<stop stop-color="#88C577"/>
<stop offset="1" stop-color="#37B016"/>
</linearGradient>
</defs>
</svg>
